<svg width="182" height="55" fill="none" xmlns="http://www.w3.org/2000/svg"><path fill-rule="evenodd" clip-rule="evenodd" d="M131.665 33.503v4.644h4.645v4.644h4.646v-4.644h4.645v-4.644h-4.645v-4.645h-4.646v4.645h-4.645zm45.018-12.295h-2.659v2.659h2.659v2.659h2.658v-2.66H182v-2.658h-2.659v-2.657h-2.658v2.657zm-63.689 21.583h6.993v-6.984h6.983v-6.993h-6.983V21.83h-6.993v20.96zm6.993-20.961h6.983v-6.994h6.993v6.994h6.993v6.984h6.985V21.83h6.992v-6.994h4.646v4.645h4.646v-4.645h4.646v-4.644h-4.646V5.548h-4.646v4.644h-4.646v4.644h-6.992V7.852h-6.985v6.984h-6.993V7.852h-6.993V.868h-6.983v6.984h-6.993v6.984h6.993v6.994zm44.238 1.196v3.659h-3.66v3.658h3.66v3.659h3.66v-3.659h3.66v-3.658h-3.66v-3.66h-3.66z" fill="#fff"/><path d="M0 49.153h1.5v5.251H0v-5.251zm6.91 0v1.455H5.674v3.797h-1.5v-3.797h-1.24v-1.455H6.91z" fill="#FC0"/><path d="M15.456 54.404l-.315-.945h-2.093l-.315.945h-1.118l1.838-5.251h1.283l1.845 5.251h-1.125zm-2.078-1.913h1.44l-.72-2.146-.72 2.146zm7.547-3.338h1.035l-1.575 3.803c-.42 1.02-1.11 1.504-2.07 1.448v-.967c.28.025.506-.014.678-.116.173-.103.316-.27.431-.5l-1.718-3.668h1.036l1.148 2.536 1.035-2.536zm6.302 0v.99h-1.418v4.261h-1.036v-4.261h-1.41v-.99h3.864zm3.998 5.356c-.79 0-1.443-.262-1.958-.788-.515-.524-.772-1.172-.772-1.942 0-.776.257-1.425.772-1.947.515-.523 1.168-.784 1.958-.784.475 0 .915.11 1.317.334.403.222.716.523.941.903l-.892.518a1.388 1.388 0 00-.555-.551 1.648 1.648 0 00-.81-.2c-.51 0-.922.16-1.235.48-.312.32-.468.736-.468 1.246 0 .505.156.918.468 1.238.313.32.724.48 1.235.48.3 0 .571-.066.814-.199.242-.132.426-.313.551-.543l.892.517c-.225.38-.537.682-.937.904-.4.223-.84.334-1.32.334zm8.493-.791a2.64 2.64 0 01-1.936.791c-.76 0-1.404-.263-1.931-.791-.528-.528-.792-1.174-.792-1.94 0-.765.264-1.411.792-1.939a2.629 2.629 0 011.931-.791c.76 0 1.406.264 1.936.791.53.528.795 1.174.795 1.94 0 .765-.265 1.411-.795 1.939zm-3.144-.705c.326.322.728.484 1.208.484s.883-.162 1.208-.484c.325-.323.487-.734.487-1.234s-.162-.913-.487-1.239a1.641 1.641 0 00-1.208-.487c-.48 0-.882.163-1.208.487-.325.325-.487.738-.487 1.239 0 .5.162.911.487 1.234zm7.855-3.86c.505 0 .93.17 1.276.51.345.34.517.758.517 1.253 0 .495-.172.913-.517 1.253-.346.34-.77.51-1.276.51h-.923v1.725h-1.035v-5.251h1.958zm0 2.558c.22 0 .403-.076.548-.229a.79.79 0 00.217-.566c0-.23-.072-.42-.217-.57a.73.73 0 00-.548-.226h-.923v1.59h.923v.001zm6.152 2.798c-.79 0-1.443-.262-1.958-.788-.515-.524-.773-1.172-.773-1.942 0-.776.258-1.425.773-1.947.515-.523 1.168-.784 1.958-.784.475 0 .914.11 1.317.334.402.222.716.523.941.903l-.892.518a1.388 1.388 0 00-.555-.551 1.648 1.648 0 00-.81-.2c-.511 0-.922.16-1.235.48-.312.32-.469.736-.469 1.246 0 .505.157.918.469 1.238.313.32.724.48 1.234.48.3 0 .572-.066.814-.199.243-.132.427-.313.552-.543l.892.517c-.225.38-.537.682-.937.904-.4.223-.84.334-1.32.334zm7.165-.105v-3.203l-2.25 3.203h-.789v-5.251h1.035v3.21l2.251-3.21h.788v5.251h-1.035zm6.226-5.251H65v5.251h-1.028V52.23h-1.95v2.175h-1.036v-5.251h1.036v2.085h1.95v-2.085zm6.22 0v.99h-1.95v4.261h-1.036v-5.251h2.986zm9.483 0v5.251H78.64v-4.261h-1.854v4.261h-1.035v-5.251h3.924zm4.164 0c.505 0 .93.17 1.275.51.345.34.517.758.517 1.253 0 .495-.172.913-.517 1.253-.345.34-.77.51-1.275.51h-.923v1.725H81.88v-5.251h1.959zm0 2.558a.72.72 0 00.547-.229.79.79 0 00.218-.566c0-.23-.073-.42-.218-.57a.73.73 0 00-.547-.226h-.923v1.59h.923v.001zm8.08 2.007a2.64 2.64 0 01-1.936.791c-.76 0-1.404-.263-1.932-.791-.527-.528-.791-1.174-.791-1.94 0-.765.264-1.411.791-1.939a2.629 2.629 0 011.932-.791c.76 0 1.405.264 1.936.791.53.528.795 1.174.795 1.94 0 .765-.265 1.411-.795 1.939zm-3.144-.705c.325.322.728.484 1.208.484s.882-.162 1.208-.484c.325-.323.487-.734.487-1.234s-.162-.913-.487-1.239a1.641 1.641 0 00-1.208-.487c-.48 0-.883.163-1.208.487-.325.325-.488.738-.488 1.239 0 .5.163.911.488 1.234zm10.736-2.697c.435.375.652.862.652 1.462s-.217 1.088-.652 1.463c-.435.376-1.018.598-1.748.668v.608H96.75v-.608c-.736-.075-1.318-.299-1.748-.671-.43-.373-.645-.86-.645-1.46s.215-1.086.645-1.459c.43-.372 1.013-.596 1.748-.671v-.608h1.013v.608c.73.07 1.313.292 1.748.667zm-1.748 2.648c.91-.105 1.365-.5 1.365-1.185 0-.69-.455-1.088-1.365-1.193v2.378zm-2.379-1.185c0 .685.456 1.078 1.366 1.177v-2.363c-.91.1-1.365.495-1.365 1.185zm7.698 1.635h2.213v.99h-3.249v-5.251h3.212v.99h-2.176v1.118h1.988v.975h-1.988v1.178zm6.624 1.096c-.79 0-1.443-.263-1.958-.788-.515-.525-.772-1.173-.772-1.943 0-.776.257-1.424.772-1.947.515-.523 1.168-.784 1.958-.784.475 0 .914.111 1.317.334.402.222.716.524.941.904l-.892.517a1.385 1.385 0 00-.555-.551 1.65 1.65 0 00-.811-.2c-.51 0-.921.161-1.234.481-.312.32-.469.735-.469 1.245 0 .506.157.918.469 1.239.313.32.724.48 1.234.48.3 0 .572-.067.814-.2.243-.132.427-.313.552-.543l.892.517a2.45 2.45 0 01-.937.904 2.675 2.675 0 01-1.321.334zm6.565 0c-.79 0-1.443-.263-1.958-.788-.515-.525-.773-1.173-.773-1.943 0-.776.258-1.424.773-1.947.515-.523 1.168-.784 1.958-.784.475 0 .914.111 1.317.334.402.222.716.524.941.904l-.893.517a1.385 1.385 0 00-.555-.551 1.647 1.647 0 00-.81-.2c-.51 0-.922.161-1.234.481-.313.32-.469.735-.469 1.245 0 .506.156.918.469 1.239.312.32.724.48 1.234.48.3 0 .571-.067.814-.2.243-.132.426-.313.551-.543l.893.517c-.225.38-.538.682-.938.904-.4.223-.84.334-1.32.334zm7.164-.105V51.2l-2.25 3.203h-.788v-5.251h1.035v3.211l2.251-3.211h.788v5.252h-1.036zm7.66-.687a2.639 2.639 0 01-1.935.791c-.761 0-1.405-.263-1.932-.791-.528-.528-.792-1.174-.792-1.94 0-.765.264-1.41.792-1.939a2.63 2.63 0 011.932-.791c.76 0 1.405.264 1.935.791.53.528.795 1.175.795 1.94 0 .765-.264 1.411-.795 1.939zm-3.143-.705c.325.323.727.484 1.207.484.481 0 .883-.161 1.208-.484.325-.323.488-.734.488-1.234s-.163-.913-.488-1.238a1.642 1.642 0 00-1.208-.488c-.48 0-.882.163-1.207.488-.325.325-.488.737-.488 1.238 0 .5.163.911.488 1.234zm8.883-3.86h1.027v5.252h-1.027v-2.176h-1.951v2.175h-1.036v-5.251h1.036v2.086h1.951v-2.086zm6.609 5.252l-.315-.946h-2.093l-.316.945h-1.117l1.838-5.251h1.283l1.845 5.252h-1.125zm-2.078-1.914h1.44l-.72-2.145-.72 2.145zm4.599 1.913v-.96c.31.045.542-.017.697-.187.155-.17.233-.503.233-.998v-3.106h3.571v5.252h-1.028v-4.262h-1.515v2.086c0 .455-.055.838-.165 1.147-.11.31-.262.54-.454.69a1.57 1.57 0 01-.615.3c-.218.05-.46.063-.724.038zm8.665-3.526c.505 0 .93.17 1.275.51.345.34.517.759.517 1.254s-.172.912-.517 1.252c-.345.34-.77.51-1.275.51h-1.959v-5.25h1.036v1.725h.923zm0 2.559c.22 0 .402-.075.547-.225a.787.787 0 00.218-.57.791.791 0 00-.218-.567.724.724 0 00-.547-.229h-.923v1.59h.923zm6.684-4.284h1.028v5.252h-1.028v-2.176h-1.951v2.175h-1.035v-5.251h1.035v2.086h1.951v-2.086zm7.653 4.565a2.641 2.641 0 01-1.936.791c-.76 0-1.404-.263-1.932-.791-.527-.528-.791-1.174-.791-1.94 0-.765.264-1.41.791-1.939a2.63 2.63 0 011.932-.791c.76 0 1.406.264 1.936.791.53.528.795 1.175.795 1.94 0 .765-.265 1.411-.795 1.939zm-3.144-.705c.325.323.728.484 1.208.484s.883-.161 1.208-.484c.325-.323.487-.734.487-1.234s-.162-.913-.487-1.238a1.642 1.642 0 00-1.208-.488c-.48 0-.883.163-1.208.488-.325.325-.487.737-.487 1.238 0 .5.162.911.487 1.234z" fill="#fff"/><path fill-rule="evenodd" clip-rule="evenodd" d="M17.025 27.85h6.933l-3.466-12.849-3.467 12.85zM101.132.956h11.953v41.836h-11.953v-6.916c-.732 1.716-1.853 3.175-3.363 4.377-2.928 2.33-6.903 3.496-11.923 3.496-4.542 0-8.327-.946-11.355-2.839a15.954 15.954 0 01-2.036-1.502l2.05 3.385H61.237l-10.399-17.93v17.93H27.962l-1.434-5.379H14.455l-1.434 5.379H.171L13.5.956h13.985l11.401 35.787V.956h11.953v16.735L60.64.956h13.267l-12.43 20.32 7.154 11.817 9.984-5.78c1.394 3.546 3.904 5.32 7.53 5.32 2.71 0 4.064-.718 4.064-2.152 0-.399-.1-.757-.299-1.076-.199-.319-.578-.598-1.136-.837A19.204 19.204 0 0087.31 28a44.801 44.801 0 00-2.181-.628 74.2 74.2 0 01-2.331-.657c-8.327-2.51-12.491-6.992-12.491-13.447 0-3.825 1.384-6.992 4.154-9.503C77.23 1.255 80.865 0 85.368 0c3.546 0 6.724.837 9.532 2.51 2.81 1.674 4.871 4.084 6.186 7.232l-9.921 5.797c-1.155-2.948-3.068-4.422-5.738-4.422-1.036 0-1.822.209-2.36.627-.538.418-.807.946-.807 1.584 0 .877.468 1.554 1.405 2.032.936.478 2.739 1.095 5.408 1.853 1.992.597 3.626 1.165 4.9 1.703 1.276.538 2.61 1.295 4.005 2.27a9.134 9.134 0 013.138 3.766l.015.05V.955h.001zm2.566 27.578c0-.708.222-1.3.667-1.773.445-.475 1.038-.712 1.779-.712.74 0 1.333.238 1.778.712.445.474.668 1.065.668 1.773v.78h1.929v1.949h-6.821v-2.729zm3.001 0a.525.525 0 00-.555-.536.54.54 0 00-.405.156.528.528 0 00-.151.38v.78h1.111v-.78zm3.81-6.587l-2.144 1.082v.487h2.144v1.949h-6.821v-2.729c0-.747.219-1.364.658-1.851.438-.487 1.018-.731 1.739-.731.403 0 .767.093 1.092.278.324.185.587.443.789.774l2.543-1.344v2.085zm-5.028 1.569h1.267v-.74c.006-.209-.046-.373-.156-.493s-.266-.18-.468-.18c-.201 0-.359.06-.472.18-.114.12-.171.284-.171.492v.74zm4.166-9.983c.685.698 1.028 1.554 1.028 2.567 0 1.014-.343 1.87-1.028 2.568s-1.532 1.047-2.539 1.047c-1.006 0-1.853-.349-2.538-1.047-.685-.698-1.028-1.554-1.028-2.568 0-1.013.343-1.869 1.028-2.567.685-.699 1.532-1.048 2.538-1.048 1.007 0 1.854.35 2.539 1.048zm-1.355 3.761c.315-.315.473-.713.473-1.194 0-.48-.158-.878-.473-1.193-.315-.316-.709-.473-1.184-.473-.474 0-.869.158-1.183.473-.316.315-.473.713-.473 1.193 0 .481.157.879.473 1.194.314.315.709.473 1.183.473.475 0 .869-.158 1.184-.473z" fill="url(#paint0_linear)"/><defs><linearGradient id="paint0_linear" x1="7.449" y1="-4.279" x2="124.124" y2="43.471" gradientUnits="userSpaceOnUse"><stop stop-color="#FC0"/><stop offset="1" stop-color="#FF9200"/></linearGradient></defs></svg>