<svg width="49" height="26" fill="none" xmlns="http://www.w3.org/2000/svg"><path fill-rule="evenodd" clip-rule="evenodd" d="M16.177 20.24v2.88h2.944V26h2.943v-2.88h2.944v-2.88h-2.944v-2.881h-2.943v2.88h-2.944zm28.526-7.625H43.02v1.649h1.684v1.649h1.685v-1.65h1.685v-1.648h-1.685v-1.648h-1.684v1.648zM4.346 26h4.431v-4.331h4.425v-4.337H8.777V13H4.346v4.332H0v4.334h4.346V26zm4.431-13h4.425V8.663h4.432V13h4.43v4.332h4.427V13h4.43V8.663h2.945v2.88h2.944v-2.88h2.944v-2.88H36.81v-2.88h-2.944v2.88h-2.944v2.88H26.49V4.33h-4.427v4.332h-4.43V4.33h-4.432V0H8.777v4.33H4.346v4.333h4.431V13zm28.033.742v2.27h-2.32v2.268h2.32v2.27h2.319v-2.27h2.319v-2.269h-2.319v-2.27h-2.32z" fill="#FF9200"/><path fill-rule="evenodd" clip-rule="evenodd" d="M16.177 20.24v2.88h2.944V26h2.943v-2.88h2.944v-2.88h-2.944v-2.881h-2.943v2.88h-2.944zm28.526-7.625H43.02v1.649h1.684v1.649h1.685v-1.65h1.685v-1.648h-1.685v-1.648h-1.684v1.648zM4.346 26h4.431v-4.331h4.425v-4.337H8.777V13H4.346v4.332H0v4.334h4.346V26zm4.431-13h4.425V8.663h4.432V13h4.43v4.332h4.427V13h4.43V8.663h2.945v2.88h2.944v-2.88h2.944v-2.88H36.81v-2.88h-2.944v2.88h-2.944v2.88H26.49V4.33h-4.427v4.332h-4.43V4.33h-4.432V0H8.777v4.33H4.346v4.333h4.431V13zm28.033.742v2.27h-2.32v2.268h2.32v2.27h2.319v-2.27h2.319v-2.269h-2.319v-2.27h-2.32z" fill="url(#paint0_linear)"/><defs><linearGradient id="paint0_linear" x1="7.164" y1="-2.543" x2="56.414" y2="10.591" gradientUnits="userSpaceOnUse"><stop stop-color="#FC0"/><stop offset="1" stop-color="#FF9200"/></linearGradient></defs></svg>