<svg width="182" height="55" viewBox="0 0 182 55" fill="none" xmlns="http://www.w3.org/2000/svg">
<path fill-rule="evenodd" clip-rule="evenodd" d="M131.665 33.5027V38.1467H136.31V42.7905H140.956V38.1467H145.601V33.5027H140.956V28.8579H136.31V33.5027H131.665ZM176.683 21.208H174.024V23.8668H176.683V26.5257H179.341V23.8668H182V21.208H179.341V18.551H176.683V21.208ZM112.994 42.7905H119.987V35.8072H126.97V28.8139H119.987V21.8296H112.994V42.7905ZM119.987 21.8296H126.97V14.8363H133.963V21.8296H140.956V28.8139H147.941V21.8296H154.933V14.8363H159.579V19.4809H164.225V14.8363H168.871V10.1921H164.225V5.5481H159.579V10.1921H154.933V14.8363H147.941V7.85158H140.956V14.8363H133.963V7.85158H126.97V0.868469H119.987V7.85158H112.994V14.8363H119.987V21.8296ZM164.225 23.0256V26.685H160.565V30.3432H164.225V34.0016H167.885V30.3432H171.545V26.685H167.885V23.0256H164.225Z" fill="white"/>
<path d="M0 49.1527H1.50048V54.4042H0V49.1527ZM6.91095 49.1527V50.6083H5.6729V54.4045H4.17241V50.6083H2.93478V49.1527H6.91095Z" fill="#FFCC00"/>
<path d="M15.4562 54.4042L15.1409 53.4589H13.0479L12.7327 54.4042H11.6151L13.453 49.1527H14.7359L16.5815 54.4042H15.4562ZM13.3778 52.4912H14.8184L14.0981 50.3454L13.3778 52.4912ZM20.9251 49.1527H21.9604L20.3848 52.9564C19.9645 53.9767 19.2743 54.4596 18.3141 54.4045V53.4368C18.5943 53.4616 18.8206 53.423 18.9931 53.3205C19.1655 53.218 19.3094 53.0516 19.4244 52.8215L17.7064 49.1529H18.7417L19.8896 51.6887L20.9249 49.1529L20.9251 49.1527ZM27.2268 49.1527V50.1429H25.8088V54.4042H24.7735V50.1429H23.363V49.1527H27.2268ZM31.2253 54.5093C30.4351 54.5093 29.7823 54.2466 29.2674 53.7215C28.7522 53.1965 28.4947 52.5488 28.4947 51.7785C28.4947 51.0033 28.7522 50.3544 29.2674 49.8316C29.7825 49.3088 30.4351 49.0476 31.2253 49.0476C31.7003 49.0476 32.1396 49.1589 32.5421 49.3815C32.9446 49.6038 33.2584 49.9053 33.4835 50.2853L32.591 50.8028C32.4607 50.568 32.2757 50.384 32.0358 50.2517C31.7957 50.1191 31.5256 50.0527 31.2256 50.0527C30.7153 50.0527 30.304 50.2128 29.9913 50.5329C29.6789 50.8529 29.5226 51.2682 29.5226 51.7782C29.5226 52.2835 29.6789 52.696 29.9913 53.0163C30.3038 53.3363 30.7153 53.4965 31.2256 53.4965C31.5256 53.4965 31.797 53.4301 32.0396 53.2975C32.2822 53.1652 32.4659 52.9837 32.591 52.7537L33.4835 53.2712C33.2584 53.6512 32.9459 53.9527 32.5459 54.1752C32.1456 54.3978 31.7055 54.5088 31.2253 54.5088V54.5093ZM39.718 53.7178C39.1879 54.2456 38.5426 54.5093 37.7824 54.5093C37.0223 54.5093 36.3782 54.2456 35.8506 53.7178C35.323 53.1902 35.0591 52.5436 35.0591 51.7785C35.0591 51.0131 35.323 50.3669 35.8506 49.8391C36.3784 49.3115 37.0223 49.0476 37.7824 49.0476C38.5426 49.0476 39.1879 49.3115 39.718 49.8391C40.2481 50.3669 40.5132 51.0133 40.5132 51.7785C40.5132 52.5438 40.2483 53.1902 39.718 53.7178ZM36.5744 53.0127C36.8995 53.3353 37.3022 53.4967 37.7822 53.4967C38.2624 53.4967 38.6649 53.3353 38.99 53.0127C39.3151 52.69 39.4775 52.2787 39.4775 51.7785C39.4775 51.2784 39.3151 50.8657 38.99 50.5404C38.6649 50.2155 38.2622 50.0529 37.7822 50.0529C37.302 50.0529 36.8995 50.2155 36.5744 50.5404C36.2494 50.8655 36.0869 51.2782 36.0869 51.7785C36.0869 52.2785 36.2494 52.69 36.5744 53.0127ZM44.4293 49.1527C44.9345 49.1527 45.3594 49.3228 45.7045 49.6629C46.0496 50.003 46.222 50.4208 46.222 50.9158C46.222 51.411 46.0496 51.8286 45.7045 52.1687C45.3594 52.5088 44.9343 52.6789 44.4293 52.6789H43.5063V54.4045H42.4709V49.1529H44.4293V49.1527ZM44.4293 51.711C44.6493 51.711 44.8318 51.6346 44.9767 51.482C45.1218 51.3294 45.1942 51.1406 45.1942 50.9156C45.1942 50.6855 45.1218 50.4953 44.9767 50.3454C44.8318 50.1953 44.6491 50.1203 44.4293 50.1203H43.5063V51.7108H44.4293V51.711ZM50.5811 54.5093C49.7909 54.5093 49.138 54.2466 48.6232 53.7215C48.1079 53.1965 47.8505 52.5488 47.8505 51.7785C47.8505 51.0033 48.1079 50.3544 48.6232 49.8316C49.1382 49.3088 49.7909 49.0476 50.5811 49.0476C51.0561 49.0476 51.4953 49.1589 51.8979 49.3815C52.3004 49.6038 52.6142 49.9053 52.8392 50.2853L51.9467 50.8028C51.8164 50.568 51.6315 50.384 51.3916 50.2517C51.1515 50.1191 50.8813 50.0527 50.5813 50.0527C50.071 50.0527 49.6598 50.2128 49.347 50.5329C49.0347 50.8529 48.8783 51.2682 48.8783 51.7782C48.8783 52.2835 49.0347 52.696 49.347 53.0163C49.6595 53.3363 50.071 53.4965 50.5813 53.4965C50.8813 53.4965 51.1527 53.4301 51.3953 53.2975C51.6379 53.1652 51.8216 52.9837 51.9467 52.7537L52.8392 53.2712C52.6142 53.6512 52.3016 53.9527 51.9016 54.1752C51.5014 54.3978 51.0613 54.5088 50.5811 54.5088V54.5093ZM57.7457 54.4042V51.2008L55.4951 54.4042H54.7072V49.1527H55.7425V52.3639L57.9933 49.1527H58.781V54.4042H57.7457ZM63.9725 49.1527H65.0001V54.4042H63.9725V52.2286H62.0217V54.4042H60.9863V49.1527H62.0217V51.2383H63.9725V49.1527ZM70.192 49.1527V50.1429H68.2411V54.4042H67.2058V49.1527H70.192ZM79.6748 49.1527V54.4042H78.6395V50.1429H76.7864V54.4042H75.7511V49.1527H79.6748ZM83.8387 49.1527C84.3439 49.1527 84.7688 49.3228 85.1139 49.6629C85.459 50.003 85.6315 50.4208 85.6315 50.9158C85.6315 51.411 85.459 51.8286 85.1139 52.1687C84.7688 52.5088 84.3437 52.6789 83.8387 52.6789H82.9157V54.4045H81.8804V49.1529H83.8387V49.1527ZM83.8387 51.711C84.0587 51.711 84.2412 51.6346 84.3861 51.482C84.5312 51.3294 84.6036 51.1406 84.6036 50.9156C84.6036 50.6855 84.5312 50.4953 84.3861 50.3454C84.2412 50.1953 84.0585 50.1203 83.8387 50.1203H82.9157V51.7108H83.8387V51.711ZM91.9186 53.7178C91.3885 54.2456 90.7432 54.5093 89.983 54.5093C89.2228 54.5093 88.5788 54.2456 88.0512 53.7178C87.5236 53.1902 87.2597 52.5436 87.2597 51.7785C87.2597 51.0131 87.5236 50.3669 88.0512 49.8391C88.579 49.3115 89.2228 49.0476 89.983 49.0476C90.7432 49.0476 91.3885 49.3115 91.9186 49.8391C92.4487 50.3669 92.7138 51.0133 92.7138 51.7785C92.7138 52.5438 92.4489 53.1902 91.9186 53.7178ZM88.775 53.0127C89.1001 53.3353 89.5028 53.4967 89.9828 53.4967C90.463 53.4967 90.8655 53.3353 91.1906 53.0127C91.5156 52.69 91.6781 52.2787 91.6781 51.7785C91.6781 51.2784 91.5156 50.8657 91.1906 50.5404C90.8655 50.2155 90.4628 50.0529 89.9828 50.0529C89.5026 50.0529 89.1001 50.2155 88.775 50.5404C88.45 50.8655 88.2875 51.2782 88.2875 51.7785C88.2875 52.2785 88.45 52.69 88.775 53.0127ZM99.5108 50.3155C99.9459 50.6907 100.163 51.1782 100.163 51.7785C100.163 52.3787 99.9459 52.8662 99.5108 53.2414C99.0755 53.6165 98.4928 53.8391 97.7627 53.9092V54.517H96.7499V53.9092C96.0144 53.8341 95.4319 53.6103 95.0018 53.2376C94.5717 52.8651 94.3567 52.3785 94.3567 51.7785C94.3567 51.1782 94.5717 50.692 95.0018 50.3193C95.4319 49.9469 96.0146 49.7228 96.7499 49.6479V49.0401H97.7627V49.6479C98.4928 49.7178 99.0755 49.9404 99.5108 50.3155ZM97.7627 52.9641C98.6729 52.8589 99.1281 52.4639 99.1281 51.7787C99.1281 51.0884 98.6727 50.6909 97.7627 50.5857V52.9641ZM95.3845 51.7787C95.3845 52.4639 95.8396 52.8566 96.7499 52.9564V50.5932C95.8394 50.693 95.3845 51.0882 95.3845 51.7785V51.7787ZM103.082 53.4142H105.295V54.4045H102.046V49.1529H105.258V50.1431H103.082V51.2609H105.07V52.2363H103.082V53.414V53.4142ZM109.706 54.5095C108.916 54.5095 108.263 54.2468 107.748 53.7218C107.233 53.1967 106.976 52.549 106.976 51.7787C106.976 51.0035 107.233 50.3546 107.748 49.8318C108.263 49.309 108.916 49.0479 109.706 49.0479C110.181 49.0479 110.62 49.1591 111.023 49.3817C111.425 49.604 111.739 49.9055 111.964 50.2855L111.072 50.803C110.942 50.5682 110.757 50.3842 110.517 50.2519C110.277 50.1193 110.006 50.0529 109.706 50.0529C109.196 50.0529 108.785 50.213 108.472 50.5331C108.16 50.8532 108.003 51.2684 108.003 51.7785C108.003 52.2837 108.16 52.6962 108.472 53.0165C108.785 53.3366 109.196 53.4967 109.706 53.4967C110.006 53.4967 110.278 53.4303 110.52 53.2977C110.763 53.1654 110.947 52.9839 111.072 52.7539L111.964 53.2714C111.739 53.6514 111.427 53.9529 111.027 54.1754C110.626 54.398 110.186 54.5091 109.706 54.5091V54.5095ZM116.271 54.5095C115.481 54.5095 114.828 54.2468 114.313 53.7218C113.798 53.1967 113.54 52.549 113.54 51.7787C113.54 51.0035 113.798 50.3546 114.313 49.8318C114.828 49.309 115.481 49.0479 116.271 49.0479C116.746 49.0479 117.185 49.1591 117.588 49.3817C117.99 49.604 118.304 49.9055 118.529 50.2855L117.636 50.803C117.506 50.5682 117.321 50.3842 117.081 50.2519C116.841 50.1193 116.571 50.0529 116.271 50.0529C115.761 50.0529 115.349 50.213 115.037 50.5331C114.724 50.8532 114.568 51.2684 114.568 51.7785C114.568 52.2837 114.724 52.6962 115.037 53.0165C115.349 53.3366 115.761 53.4967 116.271 53.4967C116.571 53.4967 116.842 53.4303 117.085 53.2977C117.328 53.1654 117.511 52.9839 117.636 52.7539L118.529 53.2714C118.304 53.6514 117.991 53.9529 117.591 54.1754C117.191 54.398 116.751 54.5091 116.271 54.5091V54.5095ZM123.435 54.4045V51.201L121.185 54.4045H120.397V49.1529H121.432V52.3641L123.683 49.1529H124.471V54.4045H123.435ZM131.095 53.718C130.565 54.2458 129.92 54.5095 129.16 54.5095C128.399 54.5095 127.755 54.2458 127.228 53.718C126.7 53.1904 126.436 52.5438 126.436 51.7787C126.436 51.0133 126.7 50.3671 127.228 49.8393C127.756 49.3118 128.399 49.0479 129.16 49.0479C129.92 49.0479 130.565 49.3118 131.095 49.8393C131.625 50.3671 131.89 51.0135 131.89 51.7787C131.89 52.544 131.626 53.1904 131.095 53.718ZM127.952 53.013C128.277 53.3355 128.679 53.4969 129.159 53.4969C129.64 53.4969 130.042 53.3355 130.367 53.013C130.692 52.6902 130.855 52.2789 130.855 51.7787C130.855 51.2786 130.692 50.8659 130.367 50.5406C130.042 50.2158 129.639 50.0531 129.159 50.0531C128.679 50.0531 128.277 50.2158 127.952 50.5406C127.627 50.8657 127.464 51.2784 127.464 51.7787C127.464 52.2787 127.627 52.6902 127.952 53.013ZM136.835 49.1529H137.862V54.4045H136.835V52.2288H134.884V54.4045H133.848V49.1529H134.884V51.2386H136.835V49.1529ZM143.444 54.4045L143.129 53.4591H141.036L140.72 54.4045H139.603L141.441 49.1529H142.724L144.569 54.4045H143.444ZM141.366 52.4914H142.806L142.086 50.3456L141.366 52.4914ZM145.965 54.4045V53.4443C146.275 53.4894 146.507 53.4268 146.662 53.2566C146.817 53.0867 146.895 52.7541 146.895 52.2588V49.1529H150.466V54.4045H149.438V50.1431H147.923V52.2288C147.923 52.6839 147.868 53.0666 147.758 53.3764C147.648 53.6867 147.496 53.9168 147.304 54.0667C147.111 54.2168 146.906 54.3168 146.689 54.3667C146.471 54.4168 146.229 54.4293 145.965 54.4042V54.4045ZM154.63 50.8784C155.135 50.8784 155.56 51.0486 155.905 51.3887C156.25 51.7288 156.422 52.1465 156.422 52.6415C156.422 53.1368 156.25 53.5543 155.905 53.8944C155.56 54.2345 155.135 54.4047 154.63 54.4047H152.671V49.1531H153.707V50.8786H154.63V50.8784ZM154.63 53.4368C154.85 53.4368 155.032 53.3616 155.177 53.2115C155.322 53.0616 155.395 52.8714 155.395 52.6413C155.395 52.4163 155.322 52.2275 155.177 52.0749C155.032 51.9223 154.849 51.8461 154.63 51.8461H153.707V53.4366H154.63V53.4368ZM161.314 49.1529H162.342V54.4045H161.314V52.2288H159.363V54.4045H158.328V49.1529H159.363V51.2386H161.314V49.1529ZM168.967 53.718C168.437 54.2458 167.791 54.5095 167.031 54.5095C166.271 54.5095 165.627 54.2458 165.099 53.718C164.572 53.1904 164.308 52.5438 164.308 51.7787C164.308 51.0133 164.572 50.3671 165.099 49.8393C165.627 49.3118 166.271 49.0479 167.031 49.0479C167.791 49.0479 168.437 49.3118 168.967 49.8393C169.497 50.3671 169.762 51.0135 169.762 51.7787C169.762 52.544 169.497 53.1904 168.967 53.718ZM165.823 53.013C166.148 53.3355 166.551 53.4969 167.031 53.4969C167.511 53.4969 167.914 53.3355 168.239 53.013C168.564 52.6902 168.726 52.2789 168.726 51.7787C168.726 51.2786 168.564 50.8659 168.239 50.5406C167.914 50.2158 167.511 50.0531 167.031 50.0531C166.551 50.0531 166.148 50.2158 165.823 50.5406C165.498 50.8657 165.336 51.2784 165.336 51.7787C165.336 52.2787 165.498 52.6902 165.823 53.013Z" fill="white"/>
<path fill-rule="evenodd" clip-rule="evenodd" d="M17.0251 27.8506H23.9579L20.4916 15.0012L17.0253 27.8506H17.0251ZM101.132 0.954996H113.085V42.7905H101.132V35.8754C100.4 37.5913 99.2795 39.0501 97.7694 40.2519C94.8408 42.5827 90.8664 43.7481 85.8461 43.7481C81.304 43.7481 77.5188 42.8018 74.4907 40.9091C73.753 40.4479 73.0747 39.9473 72.4554 39.4071L74.505 42.7919H61.237L50.8381 24.8621V42.7919H40.8118H38.8848H27.962L26.5279 37.413H14.4552L13.021 42.7919H0.171257L13.4992 0.95638H27.4842L38.885 36.7435V0.95638H50.8381V17.6905L60.6397 0.95638H73.9073L61.4761 21.2767L68.6314 33.0926L78.6147 27.313C80.0092 30.859 82.5194 32.6322 86.1449 32.6322C88.8544 32.6322 90.2091 31.9149 90.2091 30.4806C90.2091 30.0821 90.1094 29.7236 89.9102 29.4048C89.7111 29.0861 89.3323 28.8072 88.7744 28.568C88.2167 28.3287 87.7288 28.1398 87.3102 28.0001C86.8921 27.8608 86.1648 27.6514 85.1289 27.3725C84.093 27.0937 83.3161 26.8745 82.798 26.7151C74.4706 24.2051 70.307 19.7225 70.307 13.268C70.307 9.44302 71.6914 6.27556 74.4607 3.7653C77.2299 1.25522 80.8655 0 85.3678 0C88.9139 0 92.0915 0.836811 94.9003 2.51026C97.7092 4.18388 99.7711 6.5943 101.086 9.74186L91.1649 15.5391C90.0096 12.5908 88.097 11.1165 85.4273 11.1165C84.3915 11.1165 83.6046 11.3257 83.0668 11.7441C82.5288 12.1625 82.2601 12.6904 82.2601 13.3279C82.2601 14.2045 82.7281 14.8818 83.6646 15.3597C84.6007 15.838 86.4038 16.4554 89.0731 17.2128C91.0653 17.8101 92.6991 18.3782 93.9739 18.916C95.2488 19.4538 96.5838 20.2108 97.9781 21.1869C99.3728 22.163 100.419 23.4182 101.116 24.9521L101.131 25.0022V0.954996H101.132ZM103.698 28.5332C103.698 27.825 103.92 27.2339 104.365 26.7598C104.81 26.2855 105.403 26.0484 106.144 26.0484C106.884 26.0484 107.477 26.2855 107.922 26.7598C108.367 27.2339 108.59 27.8252 108.59 28.5332V29.3128H110.519V31.2617H103.698V28.5332H103.698ZM106.699 28.5332C106.699 28.3839 106.649 28.2571 106.548 28.1531C106.447 28.0493 106.312 27.9972 106.144 27.9972C105.975 27.9972 105.84 28.0493 105.739 28.1531C105.639 28.2569 105.588 28.3837 105.588 28.5332V29.3128H106.699V28.5332ZM110.509 21.946L108.365 23.0277V23.5148H110.509V25.4637H103.688V22.7353C103.688 21.9881 103.907 21.371 104.346 20.8838C104.784 20.3967 105.364 20.153 106.085 20.153C106.488 20.153 106.852 20.2456 107.177 20.4307C107.501 20.6159 107.764 20.8742 107.966 21.2054L110.509 19.8606V21.9459L110.509 21.946ZM105.481 23.5148H106.748V22.7742C106.754 22.5664 106.702 22.4023 106.592 22.2823C106.482 22.162 106.326 22.1019 106.124 22.1019C105.923 22.1019 105.765 22.162 105.652 22.2823C105.538 22.4023 105.481 22.5664 105.481 22.7742V23.5148H105.481ZM109.647 13.5316C110.332 14.2301 110.675 15.086 110.675 16.0993C110.675 17.1127 110.332 17.9686 109.647 18.667C108.962 19.3654 108.115 19.7145 107.108 19.7145C106.102 19.7145 105.255 19.3654 104.57 18.667C103.885 17.9686 103.542 17.1127 103.542 16.0993C103.542 15.086 103.885 14.2301 104.57 13.5316C105.255 12.8332 106.102 12.484 107.108 12.484C108.115 12.484 108.962 12.8332 109.647 13.5316ZM108.292 17.2931C108.607 16.978 108.765 16.58 108.765 16.0993C108.765 15.6186 108.607 15.2206 108.292 14.9057C107.977 14.5905 107.583 14.4329 107.108 14.4329C106.634 14.4329 106.239 14.5905 105.925 14.9057C105.609 15.2206 105.452 15.6186 105.452 16.0993C105.452 16.58 105.609 16.978 105.925 17.2931C106.239 17.608 106.634 17.7656 107.108 17.7656C107.583 17.7656 107.977 17.608 108.292 17.2931Z" fill="url(#paint0_linear)"/>
<defs>
<linearGradient id="paint0_linear" x1="7.44871" y1="-4.27922" x2="124.124" y2="43.4713" gradientUnits="userSpaceOnUse">
<stop stop-color="#FFCC00"/>
<stop offset="1" stop-color="#FF9200"/>
</linearGradient>
</defs>
</svg>
