<svg width="49" height="26" viewBox="0 0 49 26" fill="none" xmlns="http://www.w3.org/2000/svg">
<path fill-rule="evenodd" clip-rule="evenodd" d="M16.1773 20.2397V23.1199H19.1206V26H22.0644V23.1199H25.0084V20.2397H22.0644V17.359H19.1206V20.2397H16.1773ZM44.7035 12.6146H43.0186V14.2635H44.7035V15.9126H46.3883V14.2635H48.073V12.6146H46.3883V10.9667H44.7035V12.6146ZM4.34574 26H8.77708V21.669H13.2022V17.3317H8.77708V13.0001H4.34574V17.3317H0V21.6659H4.34574V26ZM8.77708 13.0001H13.2022V8.6628H17.6336V13.0001H22.0644V17.3317H26.4909V13.0001H30.9215V8.6628H33.8657V11.5434H36.8096V8.6628H39.7535V5.7825H36.8096V2.9023H33.8657V5.7825H30.9215V8.6628H26.4909V4.33092H22.0644V8.6628H17.6336V4.33092H13.2022V0H8.77708V4.33092H4.34574V8.6628H8.77708V13.0001ZM36.8096 13.7418V16.0114H34.4903V18.2802H36.8096V20.5491H39.129V18.2802H41.4478V16.0114H39.129V13.7418H36.8096Z" fill="#FF9200"/>
<path fill-rule="evenodd" clip-rule="evenodd" d="M16.1773 20.2397V23.1199H19.1206V26H22.0644V23.1199H25.0084V20.2397H22.0644V17.359H19.1206V20.2397H16.1773ZM44.7035 12.6146H43.0186V14.2635H44.7035V15.9126H46.3883V14.2635H48.073V12.6146H46.3883V10.9667H44.7035V12.6146ZM4.34574 26H8.77708V21.669H13.2022V17.3317H8.77708V13.0001H4.34574V17.3317H0V21.6659H4.34574V26ZM8.77708 13.0001H13.2022V8.6628H17.6336V13.0001H22.0644V17.3317H26.4909V13.0001H30.9215V8.6628H33.8657V11.5434H36.8096V8.6628H39.7535V5.7825H36.8096V2.9023H33.8657V5.7825H30.9215V8.6628H26.4909V4.33092H22.0644V8.6628H17.6336V4.33092H13.2022V0H8.77708V4.33092H4.34574V8.6628H8.77708V13.0001ZM36.8096 13.7418V16.0114H34.4903V18.2802H36.8096V20.5491H39.129V18.2802H41.4478V16.0114H39.129V13.7418H36.8096Z" fill="url(#paint0_linear)"/>
<defs>
<linearGradient id="paint0_linear" x1="7.16406" y1="-2.54322" x2="56.4136" y2="10.5907" gradientUnits="userSpaceOnUse">
<stop stop-color="#FFCC00"/>
<stop offset="1" stop-color="#FF9200"/>
</linearGradient>
</defs>
</svg>
